<svg xmlns="http://www.w3.org/2000/svg" version="1.1" xmlns:xlink="http://www.w3.org/1999/xlink" xmlns:svgjs="http://svgjs.com/svgjs" width="1440" height="560" preserveAspectRatio="none" viewBox="0 0 1440 560"><g mask="url(&quot;#SvgjsMask1023&quot;)" fill="none"><rect width="1440" height="560" x="0" y="0" fill="rgba(15, 39, 109, 1)"></rect><path d="M568 272L567 -109" stroke-width="10" stroke="url(#SvgjsLinearGradient1024)" stroke-linecap="round" class="Down"></path><path d="M790 4L789 -328" stroke-width="8" stroke="url(#SvgjsLinearGradient1024)" stroke-linecap="round" class="Down"></path><path d="M341 83L340 420" stroke-width="6" stroke="url(#SvgjsLinearGradient1025)" stroke-linecap="round" class="Up"></path><path d="M931 92L930 289" stroke-width="8" stroke="url(#SvgjsLinearGradient1024)" stroke-linecap="round" class="Down"></path><path d="M1093 46L1092 370" stroke-width="10" stroke="url(#SvgjsLinearGradient1025)" stroke-linecap="round" class="Up"></path><path d="M926 339L925 153" stroke-width="6" stroke="url(#SvgjsLinearGradient1025)" stroke-linecap="round" class="Up"></path><path d="M825 86L824 278" stroke-width="10" stroke="url(#SvgjsLinearGradient1025)" stroke-linecap="round" class="Up"></path><path d="M1433 153L1432 562" stroke-width="6" stroke="url(#SvgjsLinearGradient1024)" stroke-linecap="round" class="Down"></path><path d="M752 62L751 -335" stroke-width="6" stroke="url(#SvgjsLinearGradient1025)" stroke-linecap="round" class="Up"></path><path d="M1240 359L1239 18" stroke-width="10" stroke="url(#SvgjsLinearGradient1024)" stroke-linecap="round" class="Down"></path><path d="M475 498L474 180" stroke-width="10" stroke="url(#SvgjsLinearGradient1025)" stroke-linecap="round" class="Up"></path><path d="M769 110L768 478" stroke-width="8" stroke="url(#SvgjsLinearGradient1024)" stroke-linecap="round" class="Down"></path><path d="M377 147L376 -93" stroke-width="10" stroke="url(#SvgjsLinearGradient1024)" stroke-linecap="round" class="Down"></path><path d="M826 87L825 -157" stroke-width="6" stroke="url(#SvgjsLinearGradient1025)" stroke-linecap="round" class="Up"></path><path d="M806 184L805 584" stroke-width="6" stroke="url(#SvgjsLinearGradient1025)" stroke-linecap="round" class="Up"></path><path d="M625 375L624 66" stroke-width="6" stroke="url(#SvgjsLinearGradient1025)" stroke-linecap="round" class="Up"></path><path d="M480 273L479 26" stroke-width="10" stroke="url(#SvgjsLinearGradient1025)" stroke-linecap="round" class="Up"></path><path d="M598 396L597 564" stroke-width="6" stroke="url(#SvgjsLinearGradient1025)" stroke-linecap="round" class="Up"></path><path d="M532 185L531 593" stroke-width="10" stroke="url(#SvgjsLinearGradient1025)" stroke-linecap="round" class="Up"></path><path d="M1188 7L1187 247" stroke-width="6" stroke="url(#SvgjsLinearGradient1024)" stroke-linecap="round" class="Down"></path><path d="M998 505L997 837" stroke-width="10" stroke="url(#SvgjsLinearGradient1024)" stroke-linecap="round" class="Down"></path><path d="M10 155L9 542" stroke-width="8" stroke="url(#SvgjsLinearGradient1025)" stroke-linecap="round" class="Up"></path><path d="M1118 192L1117 607" stroke-width="6" stroke="url(#SvgjsLinearGradient1024)" stroke-linecap="round" class="Down"></path><path d="M238 407L237 635" stroke-width="8" stroke="url(#SvgjsLinearGradient1025)" stroke-linecap="round" class="Up"></path><path d="M1005 408L1004 80" stroke-width="10" stroke="url(#SvgjsLinearGradient1025)" stroke-linecap="round" class="Up"></path><path d="M31 186L30 -18" stroke-width="6" stroke="url(#SvgjsLinearGradient1024)" stroke-linecap="round" class="Down"></path><path d="M806 337L805 532" stroke-width="10" stroke="url(#SvgjsLinearGradient1025)" stroke-linecap="round" class="Up"></path><path d="M171 361L170 62" stroke-width="6" stroke="url(#SvgjsLinearGradient1024)" stroke-linecap="round" class="Down"></path><path d="M1317 368L1316 125" stroke-width="8" stroke="url(#SvgjsLinearGradient1025)" stroke-linecap="round" class="Up"></path><path d="M1427 480L1426 642" stroke-width="10" stroke="url(#SvgjsLinearGradient1025)" stroke-linecap="round" class="Up"></path><path d="M392 498L391 886" stroke-width="10" stroke="url(#SvgjsLinearGradient1025)" stroke-linecap="round" class="Up"></path><path d="M886 539L885 248" stroke-width="8" stroke="url(#SvgjsLinearGradient1025)" stroke-linecap="round" class="Up"></path><path d="M717 321L716 589" stroke-width="6" stroke="url(#SvgjsLinearGradient1025)" stroke-linecap="round" class="Up"></path><path d="M842 501L841 734" stroke-width="6" stroke="url(#SvgjsLinearGradient1024)" stroke-linecap="round" class="Down"></path><path d="M1269 77L1268 375" stroke-width="6" stroke="url(#SvgjsLinearGradient1024)" stroke-linecap="round" class="Down"></path><path d="M726 189L725 -64" stroke-width="8" stroke="url(#SvgjsLinearGradient1025)" stroke-linecap="round" class="Up"></path></g><defs><mask id="SvgjsMask1023"><rect width="1440" height="560" fill="#ffffff"></rect></mask><linearGradient x1="0%" y1="0%" x2="0%" y2="100%" id="SvgjsLinearGradient1024"><stop stop-color="rgba(29, 78, 216, 0)" offset="0"></stop><stop stop-color="rgba(29, 78, 216, 1)" offset="1"></stop></linearGradient><linearGradient x1="0%" y1="100%" x2="0%" y2="0%" id="SvgjsLinearGradient1025"><stop stop-color="rgba(29, 78, 216, 0)" offset="0"></stop><stop stop-color="rgba(29, 78, 216, 1)" offset="1"></stop></linearGradient></defs></svg>