<svg xmlns="http://www.w3.org/2000/svg" version="1.1" xmlns:xlink="http://www.w3.org/1999/xlink" xmlns:svgjs="http://svgjs.com/svgjs" width="1440" height="560" preserveAspectRatio="none" viewBox="0 0 1440 560"><g mask="url(&quot;#SvgjsMask1004&quot;)" fill="none"><rect width="1440" height="560" x="0" y="0" fill="url(#SvgjsLinearGradient1005)"></rect><path d="M0 0L452.54 0L0 80.77z" fill="rgba(255, 255, 255, .1)"></path><path d="M0 80.77L452.54 0L719.75 0L0 288.36z" fill="rgba(255, 255, 255, .075)"></path><path d="M0 288.36L719.75 0L860.04 0L0 437.69000000000005z" fill="rgba(255, 255, 255, .05)"></path><path d="M0 437.69000000000005L860.04 0L1157.57 0L0 440.19000000000005z" fill="rgba(255, 255, 255, .025)"></path><path d="M1440 560L930.5 560L1440 369.85z" fill="rgba(0, 0, 0, .1)"></path><path d="M1440 369.85L930.5 560L685.29 560L1440 355.61z" fill="rgba(0, 0, 0, .075)"></path><path d="M1440 355.61L685.29 560L533.56 560L1440 320.75z" fill="rgba(0, 0, 0, .05)"></path><path d="M1440 320.75L533.56 560L357.67999999999995 560L1440 293.61z" fill="rgba(0, 0, 0, .025)"></path></g><defs><mask id="SvgjsMask1004"><rect width="1440" height="560" fill="#ffffff"></rect></mask><linearGradient x1="0%" y1="50%" x2="100%" y2="50%" gradientUnits="userSpaceOnUse" id="SvgjsLinearGradient1005"><stop stop-color="#0e2a47" offset="0"></stop><stop stop-color="rgba(125, 172, 232, 1)" offset="1"></stop></linearGradient></defs></svg>